<?xml version="1.0" encoding="UTF-8" standalone="no"?>
<!DOCTYPE svg PUBLIC "-//W3C//DTD SVG 1.1//EN" "http://www.w3.org/Graphics/SVG/1.1/DTD/svg11.dtd">
<svg width="100%" height="100%" viewBox="0 0 313 97" version="1.1" xmlns="http://www.w3.org/2000/svg" xmlns:xlink="http://www.w3.org/1999/xlink" xml:space="preserve" xmlns:serif="http://www.serif.com/" style="fill-rule:evenodd;clip-rule:evenodd;stroke-linejoin:round;stroke-miterlimit:2;">
    <g id="Layer-1" serif:id="Layer 1">
        <g transform="matrix(1,0,0,1,64.5348,23.8901)">
            <path d="M0,38.863C-0.745,42.631 -0.378,44.113 0.583,44.102C1.807,44.089 3.879,41.705 5.419,38.628L6.648,39.052C4.354,45.023 -0.554,51.985 -7.198,52.059C-11.569,52.107 -12.127,49.052 -11.315,43.447C-14.251,46.802 -19.271,51.405 -25.654,51.476C-32.386,51.551 -39.785,46.649 -37.463,35.257L-33.573,15.452C-29.013,-6.983 -33.337,-10.52 -38.67,-10.461C-48.024,-10.357 -50.869,1.217 -56.639,1.28C-59.349,1.311 -61.209,-0.855 -60.629,-3.747C-58.971,-11.897 -43.944,-13.025 -38.349,-13.087C-24.186,-13.244 -18.521,-7.099 -21.503,7.886L-26.972,35.14C-28.715,43.465 -24.576,46.217 -20.816,46.176C-16.97,46.133 -13.244,43.032 -10.655,39.943L-7.179,22.242C-4.773,10.498 -5.519,6.309 -8.579,6.343L-7.997,3.714L7.041,3.547L0,38.863Z" style="fill-rule:nonzero;"/>
        </g>
        <g transform="matrix(1,0,0,1,124.559,42.9851)">
            <path d="M0,31.519L0.582,28.801C3.554,28.768 6.043,24.544 8.361,12.801L10.932,0.182C12.587,-8.231 8.535,-10.984 5.125,-10.946C1.715,-10.908 -2.538,-8.063 -5.827,-5.054C-5.722,-3.481 -5.79,-1.731 -6.205,0.284L-8.687,12.99C-11.093,24.734 -10.346,28.922 -7.286,28.889L-7.87,31.519L-27.541,31.736L-27.045,29.107C-24.072,29.075 -21.583,24.85 -19.266,13.107L-16.696,0.4C-15.04,-7.924 -19.093,-10.765 -22.853,-10.723C-26.612,-10.681 -30.25,-7.668 -32.753,-4.668L-36.402,13.297C-38.72,25.04 -37.973,29.229 -35.001,29.196L-35.497,31.825L-55.255,32.044L-54.672,29.414C-51.7,29.381 -49.211,25.157 -46.893,13.414L-43.165,-5.164C-42.004,-10.948 -44.117,-12.236 -46.478,-12.21L-45.982,-14.838L-30.682,-15.008L-32.093,-8.172C-29.158,-11.528 -24.221,-15.867 -18.014,-15.936C-13.206,-15.989 -8.106,-13.51 -6.383,-7.933C-2.489,-11.562 3.756,-16.09 9.789,-16.157C16.345,-16.316 23.745,-11.327 21.423,0.065L18.852,12.685C16.535,24.427 17.092,27.394 20.175,29.458C27.749,34.359 31.463,38.076 40.031,37.981C43.528,37.942 47.718,37.284 53.211,35.913C53.996,35.729 54.869,35.545 55.743,35.535C58.19,35.508 60.3,36.532 59.725,39.774C58.977,43.367 54.625,45.165 51.83,45.371C26.675,47.835 26.403,31.226 11.016,31.397L0,31.519Z" style="fill-rule:nonzero;"/>
        </g>
        <g transform="matrix(1,0,0,1,165.183,28.4057)">
            <path d="M0,27.197C-2.986,41.833 1.058,43.712 4.992,43.668C15.046,43.557 18.666,30.925 21.234,18.132C22.314,12.96 24.458,1.394 14.055,1.51C10.382,1.551 6.814,2.989 4.141,6.342L0,27.197ZM-7.016,9.525C-2.456,-12.909 -6.78,-16.447 -12.113,-16.387C-21.468,-16.283 -24.312,-4.71 -30.083,-4.646C-32.792,-4.616 -34.653,-6.782 -34.073,-9.673C-32.414,-17.824 -17.387,-18.951 -11.792,-19.013C2.371,-19.171 8.036,-13.026 5.053,1.959C9.046,-0.708 12.003,-2.14 17.074,-2.196C30.101,-2.341 34.317,7.318 31.666,20.551C28.519,36.324 17.785,46.15 5.108,46.29C-1.886,46.368 -4.891,43.515 -7.775,43.547C-9,43.561 -10.13,44.098 -11.601,45.601L-14.223,45.718L-7.016,9.525Z" style="fill-rule:nonzero;"/>
        </g>
        <g transform="matrix(1,0,0,1,216.274,72.6688)">
            <path d="M0,-46.049L-1.16,-40.266C2.383,-44.065 6.723,-46.911 12.319,-46.973C19.488,-47.052 21.726,-42.356 20.897,-38.237C20.147,-34.906 17.47,-31.903 14.498,-31.87C11.875,-31.841 9.139,-34.085 10.467,-40.482C10.632,-41.359 11.216,-43.901 8.593,-43.872C5.621,-43.839 1.285,-40.555 -2.567,-33.168L-5.719,-17.744C-8.038,-6.001 -7.291,-1.813 -4.318,-1.845L-4.814,0.784L-24.573,1.003L-23.99,-1.627C-21.017,-1.66 -18.528,-5.884 -16.21,-17.628L-12.482,-36.205C-11.322,-41.989 -13.435,-43.278 -15.883,-43.251L-15.3,-45.88L0,-46.049Z" style="fill-rule:nonzero;"/>
        </g>
        <g transform="matrix(1,0,0,1,245.768,22.3839)">
            <path d="M0,38.359C-0.745,42.127 -0.379,43.609 0.582,43.598C1.807,43.585 3.879,41.201 5.418,38.124L6.647,38.548C4.353,44.519 -0.554,51.481 -7.199,51.555C-12.707,51.616 -12.061,46.799 -10.406,38.3L-2.037,-3.414C-0.877,-9.198 -3.078,-10.485 -5.438,-10.459L-4.855,-13.088L10.357,-13.257L0,38.359Z" style="fill-rule:nonzero;"/>
        </g>
        <g transform="matrix(1,0,0,1,283.896,72.3752)">
            <path d="M0,-26.919C0.083,-27.27 0.167,-27.62 0.249,-28.147C-7.174,-27.277 -17.606,-21.828 -19.345,-13.065C-20.504,-7.194 -17.138,-3.209 -10.668,-3.28C-8.482,-3.305 -6.39,-3.853 -4.39,-4.836L0,-26.919ZM4.775,1.619C3.448,8.104 3.294,17.812 8.365,17.756C12.823,17.707 9.093,12.501 9.839,8.821C10.168,6.98 12.223,3.024 16.77,2.974C20.966,2.927 22.228,6.322 21.396,10.179C19.905,17.628 12.328,20.335 6.558,20.4C-3.497,20.511 -7.871,12.427 -5.716,1.736L-4.974,-2.294C-8.009,-0.075 -11.93,1.193 -16.564,1.245C-26.269,1.352 -31.578,-4.36 -29.753,-13.298C-27.022,-27.232 -10.444,-30.389 0.743,-30.862C1.642,-36.469 2.076,-44.693 -4.481,-44.62C-9.814,-44.561 -13.163,-39.015 -14.327,-33.582C-15.726,-33.566 -24.636,-32.855 -23.722,-37.149C-22.977,-40.918 -14.739,-47.129 -4.073,-47.248C12.363,-47.43 12.151,-35.011 10.491,-27.036L4.775,1.619Z" style="fill-rule:nonzero;"/>
        </g>
    </g>
</svg>
